<?xml version="1.0" standalone="no"?>
<!DOCTYPE svg PUBLIC "-//W3C//DTD SVG 20010904//EN"
 "http://www.w3.org/TR/2001/REC-SVG-20010904/DTD/svg10.dtd">
<svg version="1.0" xmlns="http://www.w3.org/2000/svg"
 width="500.000000pt" height="500.000000pt" viewBox="0 0 500.000000 500.000000"
 preserveAspectRatio="xMidYMid meet">
<g transform="translate(0.000000,500.000000) scale(0.100000,-0.100000)"
fill="#000000" stroke="none">
<path d="M1860 3935 c-221 -36 -467 -140 -639 -270 -146 -111 -296 -275 -374
-413 -16 -29 -45 -65 -65 -80 -368 -282 -607 -565 -681 -806 -23 -74 -28 -204
-11 -266 11 -39 68 -103 113 -127 101 -52 273 -79 450 -70 123 5 148 18 149
76 2 59 -16 66 -175 67 -279 3 -407 55 -407 166 0 235 301 605 720 885 285
190 524 268 566 185 23 -47 3 -112 -217 -707 -244 -662 -360 -1033 -363 -1167
-1 -57 2 -70 23 -92 19 -20 34 -26 65 -26 57 0 100 38 180 158 60 91 166 269
166 280 0 2 15 30 34 61 18 31 88 164 156 296 153 299 285 548 363 685 96 170
207 347 224 362 15 12 15 11 1 -12 -17 -26 -207 -551 -265 -730 -55 -170 -93
-329 -99 -415 -6 -72 -4 -83 16 -107 17 -22 30 -28 61 -28 74 0 119 57 400
500 143 226 284 429 300 430 4 0 2 -24 -3 -52 -16 -83 -4 -243 23 -312 29 -73
105 -159 167 -187 66 -29 165 -49 249 -49 81 0 310 28 334 41 9 4 18 6 21 4 3
-3 -11 -53 -31 -112 l-36 -106 -130 -37 c-155 -44 -410 -137 -514 -186 -40
-20 -103 -50 -140 -67 -36 -17 -69 -33 -72 -34 -9 -5 -94 136 -108 179 -10 29
-9 43 2 70 22 49 76 96 140 118 70 25 77 25 77 2 0 -38 62 -67 96 -44 37 25
45 106 14 140 -18 19 -31 22 -101 22 -70 0 -90 -4 -145 -30 -112 -54 -184
-150 -184 -246 0 -56 37 -141 93 -213 l35 -45 -57 -36 c-84 -54 -179 -137
-196 -170 -22 -42 -19 -93 6 -116 17 -15 36 -19 98 -18 122 2 211 51 252 139
20 42 25 130 10 155 -13 19 18 37 194 115 132 59 437 174 522 197 21 5 46 17
56 26 16 15 17 14 10 -4 -31 -72 -141 -219 -234 -313 -230 -231 -517 -358
-872 -387 -58 -4 -84 -11 -98 -25 -26 -26 -24 -65 6 -95 24 -24 28 -25 123
-20 236 13 382 52 587 154 157 78 356 242 472 387 56 72 150 223 180 294 l26
60 71 15 c214 46 456 89 571 102 68 8 325 13 342 7 7 -3 13 -16 13 -28 0 -53
71 -75 110 -33 27 29 26 79 -1 104 -20 18 -39 19 -258 18 -204 0 -261 -4 -415
-28 -164 -25 -344 -62 -390 -82 -16 -6 -18 -4 -11 12 4 10 17 56 29 101 16 64
25 83 41 87 55 14 406 47 605 57 231 12 446 7 556 -12 62 -11 63 -11 57 -39
-4 -23 1 -34 22 -54 32 -30 45 -32 85 -11 40 21 70 67 70 109 0 75 -80 126
-230 146 -99 13 -631 13 -743 0 -49 -6 -112 -13 -140 -15 -29 -3 -74 -9 -102
-14 -27 -5 -59 -9 -70 -9 -11 -1 -40 -5 -65 -10 l-45 -8 -2 150 c-3 316 -97
591 -290 847 -206 274 -522 474 -863 546 -97 20 -406 25 -510 8z m515 -39
c282 -68 513 -195 703 -384 107 -106 184 -205 234 -297 130 -240 182 -447 182
-723 l0 -134 40 7 c255 40 700 70 931 61 205 -8 290 -19 356 -48 65 -28 86
-63 65 -112 -16 -38 -56 -69 -82 -64 -28 5 -41 35 -26 58 6 11 12 24 12 29 0
5 -42 17 -92 27 -75 15 -141 18 -343 18 -137 -1 -311 -6 -385 -12 -133 -12
-482 -52 -488 -57 -2 -1 -11 -38 -22 -81 -10 -44 -26 -99 -35 -123 -8 -24 -14
-46 -12 -48 2 -2 64 10 137 27 280 64 481 92 690 97 233 6 273 -2 278 -54 3
-28 -1 -33 -23 -39 -15 -4 -31 -1 -40 6 -14 11 -14 15 0 30 26 29 3 35 -158
38 -205 5 -488 -33 -809 -110 l-87 -21 -27 -61 c-91 -203 -315 -474 -466 -564
-16 -9 -28 -20 -28 -24 0 -4 -4 -8 -10 -8 -5 0 -34 -15 -63 -34 -105 -67 -315
-150 -449 -176 -32 -6 -108 -15 -170 -19 -94 -6 -116 -5 -130 7 -10 8 -18 23
-18 32 0 35 32 47 137 54 174 10 333 56 504 142 238 121 447 322 562 542 l38
73 -28 -7 c-49 -11 -346 -111 -439 -148 -121 -47 -310 -132 -360 -161 l-42
-25 15 -49 c37 -128 -66 -238 -233 -249 -68 -4 -73 -3 -89 21 -15 24 -15 28 1
62 20 44 84 101 187 168 42 28 77 53 77 57 0 4 -23 39 -51 79 -81 115 -98 194
-60 269 42 82 130 145 236 167 59 12 73 12 102 0 30 -13 33 -18 33 -54 0 -33
-19 -71 -35 -71 -22 0 -35 17 -35 47 l0 35 -47 -7 c-94 -13 -170 -60 -214
-132 -39 -62 -25 -122 58 -249 l47 -71 140 67 c217 104 350 153 690 257 57 18
59 20 80 73 26 65 70 210 65 214 -2 2 -51 -5 -109 -17 -73 -14 -150 -20 -255
-21 -134 -1 -157 2 -220 23 -56 19 -81 36 -126 80 -83 84 -94 123 -93 339 0
94 -3 172 -6 172 -4 0 -13 -6 -19 -14 -9 -11 -9 -15 1 -20 7 -3 4 -4 -6 -3
-35 4 -140 -143 -451 -630 -123 -193 -205 -293 -242 -293 -11 0 -28 9 -38 20
-15 17 -17 32 -12 97 9 134 69 337 227 774 90 249 140 406 140 440 0 37 -104
-99 -206 -271 -83 -138 -150 -262 -369 -685 -418 -805 -508 -942 -601 -919
-53 13 -56 71 -14 244 41 166 303 942 379 1120 6 14 26 70 46 125 20 55 40
109 45 120 12 25 57 154 76 217 16 51 20 122 10 154 -23 72 -177 59 -366 -32
-371 -177 -772 -541 -914 -829 -71 -145 -85 -268 -34 -322 56 -62 202 -96 395
-92 97 2 135 -1 147 -10 22 -18 20 -37 -5 -62 -20 -20 -28 -21 -188 -17 -271
8 -389 50 -447 159 -26 50 -23 193 6 279 47 142 171 321 335 486 96 96 250
230 333 290 21 15 49 46 61 68 149 267 397 481 706 611 76 32 203 67 325 89
14 2 113 3 220 2 142 -2 214 -7 265 -20z"/>
<path d="M1920 3824 c-233 -40 -411 -109 -582 -226 -112 -76 -264 -220 -253
-238 5 -8 4 -11 -2 -7 -11 7 -68 -51 -59 -60 2 -3 17 4 33 15 66 46 233 108
334 123 162 24 244 -39 241 -187 -2 -83 -26 -158 -215 -664 -205 -549 -367
-1046 -367 -1124 0 -17 5 -14 23 16 12 21 49 82 81 135 33 54 71 118 86 143
29 48 88 159 217 410 232 450 285 549 371 700 161 281 262 414 339 446 46 20
79 5 93 -43 16 -54 -9 -154 -110 -439 -177 -497 -251 -734 -249 -796 0 -15 3
-18 6 -8 4 8 32 53 63 100 31 47 97 148 145 225 217 345 325 493 397 546 66
47 124 36 149 -28 4 -12 6 -86 2 -162 -10 -223 21 -312 127 -367 109 -57 251
-58 543 -3 l67 12 2 71 c8 259 -38 490 -138 688 -174 345 -486 594 -870 694
-83 21 -127 26 -274 29 -96 2 -186 2 -200 -1z m303 -29 c95 -7 255 -47 346
-85 85 -36 228 -118 301 -173 190 -141 366 -391 443 -632 47 -145 75 -359 62
-479 l-7 -64 -112 -18 c-70 -12 -161 -19 -246 -19 -125 0 -139 2 -192 27 -106
49 -134 123 -124 333 7 162 -1 202 -46 240 -61 52 -145 17 -244 -102 -56 -68
-238 -338 -329 -488 -26 -44 -54 -87 -60 -95 -7 -8 -25 -39 -40 -68 -15 -29
-32 -55 -39 -59 -8 -5 -8 -3 0 8 6 8 26 61 43 119 33 109 83 252 171 500 125
347 154 462 136 534 -18 70 -92 86 -169 35 -86 -57 -234 -274 -394 -579 -36
-69 -80 -152 -98 -185 -18 -33 -69 -132 -115 -220 -121 -234 -263 -502 -299
-565 -17 -30 -47 -86 -67 -124 -19 -37 -38 -66 -40 -63 -12 11 199 620 439
1267 102 277 117 330 117 421 0 73 -25 126 -77 166 -31 24 -47 28 -115 32 -99
4 -202 -18 -293 -64 -38 -19 -70 -35 -71 -35 -1 0 30 30 69 68 40 37 74 70 77
73 3 3 41 31 85 62 152 105 290 168 454 206 96 23 259 40 321 35 19 -2 70 -6
113 -9z"/>
<path d="M2630 3766 c0 -2 8 -10 18 -17 15 -13 16 -12 3 4 -13 16 -21 21 -21
13z"/>
<path d="M2735 3721 c-3 -5 -2 -12 3 -15 5 -3 9 1 9 9 0 17 -3 19 -12 6z"/>
<path d="M2826 3642 c-3 -4 4 -9 15 -9 23 -2 25 3 4 10 -8 4 -16 3 -19 -1z"/>
<path d="M1000 3365 c0 -5 5 -17 10 -25 5 -8 10 -10 10 -5 0 6 -5 17 -10 25
-5 8 -10 11 -10 5z"/>
<path d="M1540 3356 c0 -2 7 -7 16 -10 8 -3 12 -2 9 4 -6 10 -25 14 -25 6z"/>
<path d="M920 3286 c0 -2 8 -10 18 -17 15 -13 16 -12 3 4 -13 16 -21 21 -21
13z"/>
<path d="M1556 3083 c-6 -14 -5 -15 5 -6 7 7 10 15 7 18 -3 3 -9 -2 -12 -12z"/>
<path d="M760 3066 c7 -7 13 -7 20 0 6 6 3 10 -10 10 -13 0 -16 -4 -10 -10z"/>
<path d="M737 3054 c5 -13 3 -15 -7 -9 -9 5 -11 4 -6 -3 4 -7 11 -12 17 -12
12 0 12 27 -1 35 -6 4 -7 -1 -3 -11z"/>
<path d="M665 2980 c-3 -5 -1 -10 4 -10 6 0 11 5 11 10 0 6 -2 10 -4 10 -3 0
-8 -4 -11 -10z"/>
<path d="M2546 2858 c3 -5 10 -6 15 -3 13 9 11 12 -6 12 -8 0 -12 -4 -9 -9z"/>
<path d="M2453 2775 c0 -8 4 -12 9 -9 5 3 6 10 3 15 -9 13 -12 11 -12 -6z"/>
<path d="M409 2733 c-13 -17 -13 -17 6 -3 11 8 22 16 24 17 2 2 0 3 -6 3 -6 0
-17 -8 -24 -17z"/>
<path d="M2046 2705 c-9 -26 -7 -32 5 -12 6 10 9 21 6 23 -2 3 -7 -2 -11 -11z"/>
<path d="M369 2693 c-13 -16 -12 -17 4 -4 9 7 17 15 17 17 0 8 -8 3 -21 -13z"/>
<path d="M2622 2570 c0 -19 2 -27 5 -17 2 9 2 25 0 35 -3 9 -5 1 -5 -18z"/>
<path d="M2009 2563 c-13 -16 -12 -17 4 -4 9 7 17 15 17 17 0 8 -8 3 -21 -13z"/>
<path d="M2296 2547 c3 -10 9 -15 12 -12 3 3 0 11 -7 18 -10 9 -11 8 -5 -6z"/>
<path d="M1626 2407 c3 -10 9 -15 12 -12 3 3 0 11 -7 18 -10 9 -11 8 -5 -6z"/>
<path d="M1296 2393 c-6 -14 -5 -15 5 -6 7 7 10 15 7 18 -3 3 -9 -2 -12 -12z"/>
<path d="M4138 2373 c7 -3 16 -2 19 1 4 3 -2 6 -13 5 -11 0 -14 -3 -6 -6z"/>
<path d="M2666 2358 c3 -5 10 -6 15 -3 13 9 11 12 -6 12 -8 0 -12 -4 -9 -9z"/>
<path d="M2713 2345 c0 -8 4 -12 9 -9 5 3 6 10 3 15 -9 13 -12 11 -12 -6z"/>
<path d="M3377 2269 c7 -7 15 -10 18 -7 3 3 -2 9 -12 12 -14 6 -15 5 -6 -5z"/>
<path d="M155 2121 c-3 -5 -2 -12 3 -15 5 -3 9 1 9 9 0 17 -3 19 -12 6z"/>
<path d="M2005 2121 c-3 -5 -2 -12 3 -15 5 -3 9 1 9 9 0 17 -3 19 -12 6z"/>
<path d="M3349 2013 c-13 -16 -12 -17 4 -4 9 7 17 15 17 17 0 8 -8 3 -21 -13z"/>
<path d="M1906 1958 c3 -5 10 -6 15 -3 13 9 11 12 -6 12 -8 0 -12 -4 -9 -9z"/>
<path d="M1366 1883 c-6 -14 -5 -15 5 -6 7 7 10 15 7 18 -3 3 -9 -2 -12 -12z"/>
<path d="M1320 1821 c0 -6 4 -13 10 -16 6 -3 7 1 4 9 -7 18 -14 21 -14 7z"/>
<path d="M1221 1647 c-13 -21 -12 -21 5 -5 10 10 16 20 13 22 -3 3 -11 -5 -18
-17z"/>
<path d="M2303 1546 c-143 -97 -208 -170 -183 -201 36 -43 164 -19 229 43 50
48 69 106 52 162 -6 22 -17 40 -24 39 -7 0 -40 -19 -74 -43z m77 -35 c0 -54
-35 -101 -99 -133 -54 -28 -104 -35 -129 -19 -10 6 -7 16 15 41 34 41 194 161
205 154 4 -3 8 -22 8 -43z"/>
<path d="M3074 1566 c1 -8 5 -18 8 -22 4 -3 5 1 4 10 -1 8 -5 18 -8 22 -4 3
-5 -1 -4 -10z"/>
<path d="M3047 1556 c-3 -8 2 -20 11 -27 14 -11 15 -11 5 0 -6 7 -9 20 -6 27
3 8 3 14 0 14 -3 0 -7 -6 -10 -14z"/>
<path d="M2966 1487 c3 -10 9 -15 12 -12 3 3 0 11 -7 18 -10 9 -11 8 -5 -6z"/>
<path d="M2574 1238 c-4 -7 -4 -10 1 -6 4 4 15 2 24 -5 14 -11 14 -10 2 6 -16
20 -18 21 -27 5z"/>
<path d="M1445 3850 c-3 -6 1 -7 9 -4 18 7 21 14 7 14 -6 0 -13 -4 -16 -10z"/>
<path d="M409 2903 c-13 -16 -12 -17 4 -4 16 13 21 21 13 21 -2 0 -10 -8 -17
-17z"/>
<path d="M2246 2108 c3 -5 10 -6 15 -3 13 9 11 12 -6 12 -8 0 -12 -4 -9 -9z"/>
<path d="M2005 1221 c-3 -5 -2 -12 3 -15 5 -3 9 1 9 9 0 17 -3 19 -12 6z"/>
<path d="M1832 1187 c-48 -51 -12 -137 57 -137 83 0 115 105 47 152 -24 17
-82 8 -104 -15z m93 -21 c39 -39 13 -91 -42 -84 -50 6 -65 74 -20 96 32 15 35
15 62 -12z"/>
</g>
</svg>
